<svg xmlns="http://www.w3.org/2000/svg" xmlns:xlink="http://www.w3.org/1999/xlink" width="44" height="44" viewBox="0 0 44 44">
  <defs>
    <clipPath id="clip-path">
      <rect id="Rectangle_2" data-name="Rectangle 2" width="20" height="14" transform="translate(0 0)"/>
    </clipPath>
  </defs>
  <g id="discord" transform="translate(-1835 -429)">
    <circle id="Ellipse_4" data-name="Ellipse 4" cx="22" cy="22" r="22" transform="translate(1835 429)" fill="#fff"/>
    <g id="discord-2" data-name="discord" transform="translate(1846.429 444)">
      <g id="discord-icon-new-2021-seeklogo.com-1" transform="translate(0 0)" clip-path="url(#clip-path)">
        <path id="Path_1" data-name="Path 1" d="M16.734,1.661A16.3,16.3,0,0,0,12.71.413a.061.061,0,0,0-.065.031,11.354,11.354,0,0,0-.5,1.029,15.049,15.049,0,0,0-4.519,0A10.414,10.414,0,0,0,7.117.443.063.063,0,0,0,7.052.413,16.255,16.255,0,0,0,3.028,1.661.058.058,0,0,0,3,1.683,16.683,16.683,0,0,0,.082,12.935a.068.068,0,0,0,.026.046,16.392,16.392,0,0,0,4.936,2.5.064.064,0,0,0,.069-.023,11.716,11.716,0,0,0,1.01-1.642.063.063,0,0,0-.034-.087,10.8,10.8,0,0,1-1.542-.735.063.063,0,0,1-.006-.105c.1-.078.207-.158.306-.24a.061.061,0,0,1,.064-.009,11.69,11.69,0,0,0,9.934,0,.061.061,0,0,1,.065.008c.1.082.2.163.307.241a.063.063,0,0,1-.005.105,10.13,10.13,0,0,1-1.543.734.063.063,0,0,0-.033.088,13.155,13.155,0,0,0,1.009,1.642.063.063,0,0,0,.069.024,16.338,16.338,0,0,0,4.944-2.5.063.063,0,0,0,.026-.045A16.573,16.573,0,0,0,16.759,1.684.05.05,0,0,0,16.734,1.661ZM6.606,10.689A1.9,1.9,0,0,1,4.829,8.7,1.89,1.89,0,0,1,6.606,6.7,1.879,1.879,0,0,1,8.382,8.7,1.89,1.89,0,0,1,6.606,10.689Zm6.568,0A1.9,1.9,0,0,1,11.4,8.7,1.889,1.889,0,0,1,13.174,6.7,1.879,1.879,0,0,1,14.95,8.7,1.884,1.884,0,0,1,13.174,10.689Z" transform="translate(-0.001 -0.886)"/>
      </g>
    </g>
  </g>
</svg>