<svg xmlns:xlink="http://www.w3.org/1999/xlink" xmlns="http://www.w3.org/2000/svg" width="44" height="44" viewBox="0 0 44 44">
  <g id="instagram" transform="translate(-1835 -481)">
    <circle id="Ellipse_5" data-name="Ellipse 5" cx="22" cy="22" r="22" transform="translate(1835 481)" fill="#fff"/>
    <g id="instagram_icon" data-name="instagram icon" transform="translate(1847.571 493.626)">
      <g id="Layer_x0020_1" transform="translate(0 0)">
        <path id="Path_2" data-name="Path 2" d="M13.371,19.374H5.486A5.5,5.5,0,0,1,0,13.888v-8.4A5.5,5.5,0,0,1,5.486,0h7.885a5.5,5.5,0,0,1,5.486,5.486v8.4a5.5,5.5,0,0,1-5.486,5.486Zm0-1.45h0a4.053,4.053,0,0,0,4.036-4.036v-8.4A4.053,4.053,0,0,0,13.371,1.45H5.486A4.053,4.053,0,0,0,1.45,5.486v8.4a4.053,4.053,0,0,0,4.036,4.036h7.885Z" transform="translate(0 0)"/>
        <path id="Path_3" data-name="Path 3" d="M172.945,173.643a5.193,5.193,0,1,1-5.193-5.193A5.193,5.193,0,0,1,172.945,173.643Zm-5.218-3.4h0a3.4,3.4,0,1,0,3.4,3.4A3.4,3.4,0,0,0,167.727,170.246Z" transform="translate(-158.295 -164.03)"/>
        <path id="Path_4" data-name="Path 4" d="M517.159,119.739a1.229,1.229,0,1,1-1.229-1.229A1.229,1.229,0,0,1,517.159,119.739Z" transform="translate(-501.195 -115.401)"/>
      </g>
    </g>
  </g>
</svg>