<svg xmlns:xlink="http://www.w3.org/1999/xlink" xmlns="http://www.w3.org/2000/svg" width="44" height="44" viewBox="0 0 44 44">
  <g id="opensea" transform="translate(-1835 -585)">
    <circle id="Ellipse_7" data-name="Ellipse 7" cx="22" cy="22" r="22" transform="translate(1835 585)" fill="#fff"/>
    <g id="Layer_x0020_1" transform="translate(1837.874 605.171)">
      <g id="_2134855093408" transform="translate(9.697 -8.171)">
        <path id="Path_20" data-name="Path 20" d="M187.12,185.062l-2.5-.646a28.537,28.537,0,0,0,1.136,2.622c.788,2.024,1.254,4.084.276,6.076a26.907,26.907,0,0,0-1.335,2.48l2.419.072,0,1.8c-2.343.054-3.842.422-4.014-2a39.994,39.994,0,0,0-4.994.048,5.212,5.212,0,0,0,2.706,4.949c1.709,1.031,4.948.717,7.155.717,6.16,0,5.136.471,7.967-3.712a4.828,4.828,0,0,1,2.222-1.68l.005-1.21a30.871,30.871,0,0,0-4.749,1.239c-.834.253-1.05.881-1.7,1.345a4.662,4.662,0,0,1-2.74.276v-1.745c1.5-.2,1.4.249,2.257-.756a11.7,11.7,0,0,0,1.362-1.793c1.338-2.384-.145-4.532-1.893-6.154-2.505-2.325-1.542-.925-1.727-2.934a.961.961,0,0,0-.712-.941c-1.219-.254-1.147.993-1.14,1.946Z" transform="translate(-178.092 -183.083)"/>
        <path id="Path_21" data-name="Path 21" d="M211.77,290.371l4.557.03a4.875,4.875,0,0,0,1.082-3.488,12.623,12.623,0,0,0-.755-2.729l-.271-.611c-.114-.173-.042-.085-.165-.2a67.913,67.913,0,0,0-4.448,7Z" transform="translate(-210.582 -279.834)"/>
      </g>
    </g>
  </g>
</svg>