<svg xmlns:xlink="http://www.w3.org/1999/xlink" xmlns="http://www.w3.org/2000/svg" width="44" height="44" viewBox="0 0 44 44">
  <g id="twitter" transform="translate(-1835 -533)">
    <circle id="Ellipse_6" data-name="Ellipse 6" cx="22" cy="22" r="22" transform="translate(1835 533)" fill="#fff"/>
    <g id="twitter_icon" data-name="twitter icon" transform="translate(1839.349 536.858)">
      <g id="Layer_x0020_1" transform="translate(7.619 9.989)">
        <path id="Path_5" data-name="Path 5" d="M20.056,1.921a8.226,8.226,0,0,1-2.364.648A4.128,4.128,0,0,0,19.5.291a8.233,8.233,0,0,1-2.614,1A4.12,4.12,0,0,0,9.873,5.045,11.687,11.687,0,0,1,1.388.743a4.121,4.121,0,0,0,1.274,5.5A4.1,4.1,0,0,1,.8,5.725c0,.017,0,.034,0,.052A4.119,4.119,0,0,0,4.1,9.813a4.122,4.122,0,0,1-1.859.07,4.121,4.121,0,0,0,3.845,2.859A8.259,8.259,0,0,1,.972,14.5a8.338,8.338,0,0,1-.982-.058A11.651,11.651,0,0,0,6.3,16.3,11.633,11.633,0,0,0,18.014,4.583q0-.267-.012-.533A8.366,8.366,0,0,0,20.056,1.92Z" transform="translate(0.01 0.01)"/>
      </g>
    </g>
  </g>
</svg>